{
	"asset":{
		"generator":"Khronos glTF Blender I/O v5.1.19",
		"version":"2.0"
	},
	"scene":0,
	"scenes":[
		{
			"name":"Scene",
			"nodes":[
				0
			]
		}
	],
	"nodes":[
		{
			"mesh":0,
			"name":"Sphere.002",
			"scale":[
				0.04285714402794838,
				0.051851850003004074,
				0.04285714402794838
			]
		}
	],
	"meshes":[
		{
			"name":"Sphere.002",
			"primitives":[
				{
					"attributes":{
						"POSITION":0,
						"NORMAL":1,
						"TEXCOORD_0":2
					},
					"indices":3
				}
			]
		}
	],
	"accessors":[
		{
			"bufferView":0,
			"componentType":5126,
			"count":2597,
			"max":[
				0.3499999940395355,
				1.3519476652145386,
				0.3499999940395355
			],
			"min":[
				-0.3499999940395355,
				0.0019476122688502073,
				-0.3499999940395355
			],
			"type":"VEC3"
		},
		{
			"bufferView":1,
			"componentType":5126,
			"count":2597,
			"type":"VEC3"
		},
		{
			"bufferView":2,
			"componentType":5126,
			"count":2597,
			"type":"VEC2"
		},
		{
			"bufferView":3,
			"componentType":5123,
			"count":13224,
			"type":"SCALAR"
		}
	],
	"bufferViews":[
		{
			"buffer":0,
			"byteLength":31164,
			"byteOffset":0,
			"target":34962
		},
		{
			"buffer":0,
			"byteLength":31164,
			"byteOffset":31164,
			"target":34962
		},
		{
			"buffer":0,
			"byteLength":20776,
			"byteOffset":62328,
			"target":34962
		},
		{
			"buffer":0,
			"byteLength":26448,
			"byteOffset":83104,
			"target":34963
		}
	],
	"buffers":[
		{
			"byteLength":109552,
			"uri":"alfil.bin"
		}
	]
}
