{
	"asset":{
		"generator":"Khronos glTF Blender I/O v5.1.19",
		"version":"2.0"
	},
	"scene":0,
	"scenes":[
		{
			"name":"Scene",
			"nodes":[
				0,
				1
			]
		}
	],
	"nodes":[
		{
			"mesh":0,
			"name":"Cylinder"
		},
		{
			"name":"Empty",
			"rotation":[
				0.70710688829422,
				0,
				0,
				0.7071066498756409
			],
			"translation":[
				-1.2150988578796387,
				1.9857373237609863,
				0
			]
		}
	],
	"meshes":[
		{
			"name":"Cylinder",
			"primitives":[
				{
					"attributes":{
						"POSITION":0,
						"NORMAL":1,
						"TEXCOORD_0":2
					},
					"indices":3
				}
			]
		}
	],
	"accessors":[
		{
			"bufferView":0,
			"componentType":5126,
			"count":4560,
			"max":[
				0.017500000074505806,
				0.06486353278160095,
				0.02250000089406967
			],
			"min":[
				-0.017500000074505806,
				-0.00013646458683069795,
				-0.02250000089406967
			],
			"type":"VEC3"
		},
		{
			"bufferView":1,
			"componentType":5126,
			"count":4560,
			"type":"VEC3"
		},
		{
			"bufferView":2,
			"componentType":5126,
			"count":4560,
			"type":"VEC2"
		},
		{
			"bufferView":3,
			"componentType":5123,
			"count":7164,
			"type":"SCALAR"
		}
	],
	"bufferViews":[
		{
			"buffer":0,
			"byteLength":54720,
			"byteOffset":0,
			"target":34962
		},
		{
			"buffer":0,
			"byteLength":54720,
			"byteOffset":54720,
			"target":34962
		},
		{
			"buffer":0,
			"byteLength":36480,
			"byteOffset":109440,
			"target":34962
		},
		{
			"buffer":0,
			"byteLength":14328,
			"byteOffset":145920,
			"target":34963
		}
	],
	"buffers":[
		{
			"byteLength":160248,
			"uri":"caballo.bin"
		}
	]
}
