{
	"asset":{
		"generator":"Khronos glTF Blender I/O v5.1.19",
		"version":"2.0"
	},
	"scene":0,
	"scenes":[
		{
			"name":"Scene",
			"nodes":[
				0,
				1
			]
		}
	],
	"nodes":[
		{
			"mesh":0,
			"name":"Cylinder"
		},
		{
			"name":"Empty",
			"rotation":[
				0.70710688829422,
				0,
				0,
				0.7071066498756409
			],
			"translation":[
				-1.2150988578796387,
				1.9857373237609863,
				0
			]
		}
	],
	"meshes":[
		{
			"name":"Cylinder",
			"primitives":[
				{
					"attributes":{
						"POSITION":0,
						"NORMAL":1,
						"TEXCOORD_0":2
					},
					"indices":3
				}
			]
		}
	],
	"accessors":[
		{
			"bufferView":0,
			"componentType":5126,
			"count":4542,
			"max":[
				0.3499999940395355,
				1.1974806785583496,
				0.3499999940395355
			],
			"min":[
				-0.3499999940395355,
				-0.0025193465407937765,
				-0.3499999940395355
			],
			"type":"VEC3"
		},
		{
			"bufferView":1,
			"componentType":5126,
			"count":4542,
			"type":"VEC3"
		},
		{
			"bufferView":2,
			"componentType":5126,
			"count":4542,
			"type":"VEC2"
		},
		{
			"bufferView":3,
			"componentType":5123,
			"count":7164,
			"type":"SCALAR"
		}
	],
	"bufferViews":[
		{
			"buffer":0,
			"byteLength":54504,
			"byteOffset":0,
			"target":34962
		},
		{
			"buffer":0,
			"byteLength":54504,
			"byteOffset":54504,
			"target":34962
		},
		{
			"buffer":0,
			"byteLength":36336,
			"byteOffset":109008,
			"target":34962
		},
		{
			"buffer":0,
			"byteLength":14328,
			"byteOffset":145344,
			"target":34963
		}
	],
	"buffers":[
		{
			"byteLength":159672,
			"uri":"caballo.bin"
		}
	]
}
