{
	"asset":{
		"generator":"Khronos glTF Blender I/O v5.1.19",
		"version":"2.0"
	},
	"scene":0,
	"scenes":[
		{
			"name":"Scene",
			"nodes":[
				0,
				1
			]
		}
	],
	"nodes":[
		{
			"name":"Empty"
		},
		{
			"mesh":0,
			"name":"Sphere"
		}
	],
	"meshes":[
		{
			"name":"Sphere",
			"primitives":[
				{
					"attributes":{
						"POSITION":0,
						"NORMAL":1,
						"TEXCOORD_0":2
					},
					"indices":3
				}
			]
		}
	],
	"accessors":[
		{
			"bufferView":0,
			"componentType":5126,
			"count":7712,
			"max":[
				0.01899999938905239,
				0.08500000834465027,
				0.01899999938905239
			],
			"min":[
				-0.01899999938905239,
				4.778002882233068e-09,
				-0.01899999938905239
			],
			"type":"VEC3"
		},
		{
			"bufferView":1,
			"componentType":5126,
			"count":7712,
			"type":"VEC3"
		},
		{
			"bufferView":2,
			"componentType":5126,
			"count":7712,
			"type":"VEC2"
		},
		{
			"bufferView":3,
			"componentType":5123,
			"count":11460,
			"type":"SCALAR"
		}
	],
	"bufferViews":[
		{
			"buffer":0,
			"byteLength":92544,
			"byteOffset":0,
			"target":34962
		},
		{
			"buffer":0,
			"byteLength":92544,
			"byteOffset":92544,
			"target":34962
		},
		{
			"buffer":0,
			"byteLength":61696,
			"byteOffset":185088,
			"target":34962
		},
		{
			"buffer":0,
			"byteLength":22920,
			"byteOffset":246784,
			"target":34963
		}
	],
	"buffers":[
		{
			"byteLength":269704,
			"uri":"dama.bin"
		}
	]
}
