{
	"asset":{
		"generator":"Khronos glTF Blender I/O v5.1.19",
		"version":"2.0"
	},
	"scene":0,
	"scenes":[
		{
			"name":"Scene",
			"nodes":[
				0
			]
		}
	],
	"nodes":[
		{
			"mesh":0,
			"name":"Sphere"
		}
	],
	"meshes":[
		{
			"name":"Sphere.001",
			"primitives":[
				{
					"attributes":{
						"POSITION":0,
						"NORMAL":1,
						"TEXCOORD_0":2
					},
					"indices":3
				}
			]
		}
	],
	"accessors":[
		{
			"bufferView":0,
			"componentType":5126,
			"count":4162,
			"max":[
				0.3325764536857605,
				1.2053546905517578,
				0.32499998807907104
			],
			"min":[
				-0.317423552274704,
				0.0018482208251953125,
				-0.32499998807907104
			],
			"type":"VEC3"
		},
		{
			"bufferView":1,
			"componentType":5126,
			"count":4162,
			"type":"VEC3"
		},
		{
			"bufferView":2,
			"componentType":5126,
			"count":4162,
			"type":"VEC2"
		},
		{
			"bufferView":3,
			"componentType":5123,
			"count":6324,
			"type":"SCALAR"
		}
	],
	"bufferViews":[
		{
			"buffer":0,
			"byteLength":49944,
			"byteOffset":0,
			"target":34962
		},
		{
			"buffer":0,
			"byteLength":49944,
			"byteOffset":49944,
			"target":34962
		},
		{
			"buffer":0,
			"byteLength":33296,
			"byteOffset":99888,
			"target":34962
		},
		{
			"buffer":0,
			"byteLength":12648,
			"byteOffset":133184,
			"target":34963
		}
	],
	"buffers":[
		{
			"byteLength":145832,
			"uri":"peon.bin"
		}
	]
}
