{
	"asset":{
		"generator":"Khronos glTF Blender I/O v5.1.19",
		"version":"2.0"
	},
	"scene":0,
	"scenes":[
		{
			"name":"Scene",
			"nodes":[
				0,
				1
			]
		}
	],
	"nodes":[
		{
			"name":"Empty",
			"rotation":[
				0.70710688829422,
				0,
				0,
				0.7071066498756409
			],
			"translation":[
				0.6353878974914551,
				2.1302225589752197,
				0
			]
		},
		{
			"mesh":0,
			"name":"Sphere"
		}
	],
	"meshes":[
		{
			"name":"Sphere",
			"primitives":[
				{
					"attributes":{
						"POSITION":0,
						"NORMAL":1,
						"TEXCOORD_0":2
					},
					"indices":3
				}
			]
		}
	],
	"accessors":[
		{
			"bufferView":0,
			"componentType":5126,
			"count":7712,
			"max":[
				0.4000000059604645,
				1.700000286102295,
				0.4000000059604645
			],
			"min":[
				-0.4000000059604645,
				9.556006119737503e-08,
				-0.4000000059604645
			],
			"type":"VEC3"
		},
		{
			"bufferView":1,
			"componentType":5126,
			"count":7712,
			"type":"VEC3"
		},
		{
			"bufferView":2,
			"componentType":5126,
			"count":7712,
			"type":"VEC2"
		},
		{
			"bufferView":3,
			"componentType":5123,
			"count":11460,
			"type":"SCALAR"
		}
	],
	"bufferViews":[
		{
			"buffer":0,
			"byteLength":92544,
			"byteOffset":0,
			"target":34962
		},
		{
			"buffer":0,
			"byteLength":92544,
			"byteOffset":92544,
			"target":34962
		},
		{
			"buffer":0,
			"byteLength":61696,
			"byteOffset":185088,
			"target":34962
		},
		{
			"buffer":0,
			"byteLength":22920,
			"byteOffset":246784,
			"target":34963
		}
	],
	"buffers":[
		{
			"byteLength":269704,
			"uri":"reina.bin"
		}
	]
}
