{
	"asset":{
		"generator":"Khronos glTF Blender I/O v5.1.19",
		"version":"2.0"
	},
	"scene":0,
	"scenes":[
		{
			"name":"Scene",
			"nodes":[
				0,
				1
			]
		}
	],
	"nodes":[
		{
			"name":"Empty",
			"rotation":[
				0.70710688829422,
				0,
				0,
				0.7071066498756409
			],
			"translation":[
				0.0036449432373046875,
				2.4263830184936523,
				0
			]
		},
		{
			"mesh":0,
			"name":"Cylinder.005"
		}
	],
	"meshes":[
		{
			"name":"Cylinder.005",
			"primitives":[
				{
					"attributes":{
						"POSITION":0,
						"NORMAL":1,
						"TEXCOORD_0":2
					},
					"indices":3
				}
			]
		}
	],
	"accessors":[
		{
			"bufferView":0,
			"componentType":5126,
			"count":14144,
			"max":[
				0.019999999552965164,
				0.09514805674552917,
				0.019999999552965164
			],
			"min":[
				-0.019999999552965164,
				0.00014804994862060994,
				-0.019999999552965164
			],
			"type":"VEC3"
		},
		{
			"bufferView":1,
			"componentType":5126,
			"count":14144,
			"type":"VEC3"
		},
		{
			"bufferView":2,
			"componentType":5126,
			"count":14144,
			"type":"VEC2"
		},
		{
			"bufferView":3,
			"componentType":5123,
			"count":21240,
			"type":"SCALAR"
		}
	],
	"bufferViews":[
		{
			"buffer":0,
			"byteLength":169728,
			"byteOffset":0,
			"target":34962
		},
		{
			"buffer":0,
			"byteLength":169728,
			"byteOffset":169728,
			"target":34962
		},
		{
			"buffer":0,
			"byteLength":113152,
			"byteOffset":339456,
			"target":34962
		},
		{
			"buffer":0,
			"byteLength":42480,
			"byteOffset":452608,
			"target":34963
		}
	],
	"buffers":[
		{
			"byteLength":495088,
			"uri":"rey.bin"
		}
	]
}
