{
	"asset":{
		"generator":"Khronos glTF Blender I/O v5.1.19",
		"version":"2.0"
	},
	"scene":0,
	"scenes":[
		{
			"name":"Scene",
			"nodes":[
				0,
				1
			]
		}
	],
	"nodes":[
		{
			"name":"Empty"
		},
		{
			"mesh":0,
			"name":"Cylinder"
		}
	],
	"meshes":[
		{
			"name":"Cylinder",
			"primitives":[
				{
					"attributes":{
						"POSITION":0,
						"NORMAL":1,
						"TEXCOORD_0":2
					},
					"indices":3
				}
			]
		}
	],
	"accessors":[
		{
			"bufferView":0,
			"componentType":5126,
			"count":2538,
			"max":[
				0.021352127194404602,
				0.08188464492559433,
				0.019999999552965164
			],
			"min":[
				-0.018647870048880577,
				0.02188464254140854,
				-0.019999999552965164
			],
			"type":"VEC3"
		},
		{
			"bufferView":1,
			"componentType":5126,
			"count":2538,
			"type":"VEC3"
		},
		{
			"bufferView":2,
			"componentType":5126,
			"count":2538,
			"type":"VEC2"
		},
		{
			"bufferView":3,
			"componentType":5123,
			"count":4116,
			"type":"SCALAR"
		}
	],
	"bufferViews":[
		{
			"buffer":0,
			"byteLength":30456,
			"byteOffset":0,
			"target":34962
		},
		{
			"buffer":0,
			"byteLength":30456,
			"byteOffset":30456,
			"target":34962
		},
		{
			"buffer":0,
			"byteLength":20304,
			"byteOffset":60912,
			"target":34962
		},
		{
			"buffer":0,
			"byteLength":8232,
			"byteOffset":81216,
			"target":34963
		}
	],
	"buffers":[
		{
			"byteLength":89448,
			"uri":"torre.bin"
		}
	]
}
